<?xml version="1.0" encoding="UTF-8"?>
<!DOCTYPE svg PUBLIC "-//W3C//DTD SVG 1.1//EN" "http://www.w3.org/Graphics/SVG/1.1/DTD/svg11.dtd">
<!-- Creator: CorelDRAW 2019 (64-Bit) -->
<svg xmlns="http://www.w3.org/2000/svg" xml:space="preserve" width="2035px" height="480px" version="1.1" style="shape-rendering:geometricPrecision; text-rendering:geometricPrecision; image-rendering:optimizeQuality; fill-rule:evenodd; clip-rule:evenodd"
viewBox="0 0 2035 479.89"
 xmlns:xlink="http://www.w3.org/1999/xlink"
 xmlns:xodm="http://www.corel.com/coreldraw/odm/2003">
 <defs>
  <style type="text/css">
   <![CDATA[
    .fil0 {fill:black}
    .fil1 {fill:#00AA13}
   ]]>
  </style>
 </defs>
 <g id="Layer_x0020_1">
  <metadata id="CorelCorpID_0Corel-Layer"/>
  <g id="_2076401610736">
   <path class="fil0" d="M1223.02 478.15c37.16,3.66 90.5,3.27 117.29,-18.3 14.17,-11.41 20.3,-22.34 24.38,-45.72 5.56,-31.95 2.8,-295.4 2.8,-341.58l-74.22 0.89c0,68.11 0,136.23 0,204.35 0,161.35 8.61,126.33 -70.25,134.1l0 66.26zm-492.64 -336.23c44.25,-11.46 92,9.12 97.54,49.45 7.2,52.45 -10.07,82.75 -54.63,92.7 -108.13,24.13 -135.45,-118.19 -42.91,-142.15zm353.76 -1.85c102.07,-18.43 123.24,125.63 34.77,145.31 -47.79,10.63 -85.59,-14.9 -93.89,-52.88 -9.63,-44.11 10.13,-83.58 59.12,-92.43zm-135.05 86.47c7.92,84.85 81.65,130.63 161.91,126.22 81.56,-4.47 143.46,-65.51 137.73,-151.86 -11.92,-179.62 -317.63,-166.92 -299.64,25.64zm-117.2 -122.79c-37.05,-30.77 -103.56,-43.85 -156.65,-16.25 -131.94,68.59 -84.6,283.06 90.97,262.84 42.51,-4.9 51.45,-22.68 66.47,-30.51 0.98,20.68 -0.65,42.1 -9.99,58.55 -6.44,11.35 -22.35,23.9 -41.8,28.5 -54.57,12.91 -79.34,-6.81 -110.1,-27.36l-46.18 44.78c5.6,10.21 14.92,16.13 25.92,23.41 68,44.99 178.31,45.17 231.63,-28.92 29.42,-40.88 21.48,-108.32 21.48,-163.54 0,-60.87 0,-121.74 0,-182.61l-71.85 0 0.1 31.11zm654.75 80.64c11.36,-71.08 135.62,-66.89 141.89,0l-141.89 0zm215.33 52.69c0,-77.83 -26.57,-142.94 -109.29,-160.29 -183.6,-38.52 -247.63,198.07 -99.5,262.21 71.69,31.05 162.03,8.33 193.93,-38.86 -8.45,-9.32 -38.57,-29.88 -50.43,-35.12 -41.95,46.79 -139.14,34.34 -151.52,-27.92l216.81 -0.02zm208.88 -49.63l122.11 -112.9 -96.73 -2.2 -119.17 111.78 0.65 -183.86 -71.84 -0.27 0.8 353.62 70.23 0 0.22 -76.26 46.89 -40.59 92.6 116.85 78.39 -0.63 -30.26 -40.35 -87.2 -113.82 -6.69 -11.37z"/>
   <circle class="fil1" cx="238.72" cy="240.04" r="90.51"/>
   <path class="fil1" d="M200.26 428l0.01 -0.02c6.27,-21.57 -3.93,-44.1 -24.28,-53.62 -50.5,-23.62 -85.48,-74.88 -85.48,-134.32 0,-81.85 66.36,-148.21 148.21,-148.21 81.86,0 148.21,66.36 148.21,148.21 0,59.01 -34.48,109.97 -84.4,133.81 -20.9,9.99 -30.84,33.82 -23.24,55.69l0.01 0.02c4.38,12.61 13.01,21.77 25.33,26.91 12.32,5.14 24.9,4.82 36.94,-0.94 80.36,-38.42 135.87,-120.47 135.87,-215.49 0,-131.84 -106.88,-238.72 -238.72,-238.72 -131.84,0 -238.72,106.88 -238.72,238.72 0,95.7 56.32,178.25 137.62,216.32 12.4,5.81 25.37,5.89 37.85,0.24 12.47,-5.64 20.97,-15.45 24.79,-28.6z"/>
  </g>
 </g>
</svg>
